<svg width="48" height="48" viewBox="0 0 48 48" fill="none" xmlns="http://www.w3.org/2000/svg">
<path d="M32.2969 15C30.9375 6.62812 27.7313 0.75 24 0.75C20.2687 0.75 17.0625 6.62812 15.7031 15H32.2969ZM15 24C15 26.0812 15.1125 28.0781 15.3094 30H32.6813C32.8781 28.0781 32.9906 26.0812 32.9906 24C32.9906 21.9188 32.8781 19.9219 32.6813 18H15.3094C15.1125 19.9219 15 21.9188 15 24ZM45.4406 15C42.7594 8.63437 37.3313 3.7125 30.6281 1.725C32.9156 4.89375 34.4906 9.66562 35.3156 15H45.4406ZM17.3625 1.725C10.6687 3.7125 5.23125 8.63437 2.55937 15H12.6844C13.5 9.66562 15.075 4.89375 17.3625 1.725ZM46.4437 18H35.6906C35.8875 19.9688 36 21.9844 36 24C36 26.0156 35.8875 28.0312 35.6906 30H46.4344C46.95 28.0781 47.2406 26.0812 47.2406 24C47.2406 21.9188 46.95 19.9219 46.4437 18ZM12 24C12 21.9844 12.1125 19.9688 12.3094 18H1.55625C1.05 19.9219 0.75 21.9188 0.75 24C0.75 26.0812 1.05 28.0781 1.55625 30H12.3C12.1125 28.0312 12 26.0156 12 24ZM15.7031 33C17.0625 41.3719 20.2687 47.25 24 47.25C27.7313 47.25 30.9375 41.3719 32.2969 33H15.7031ZM30.6375 46.275C37.3312 44.2875 42.7687 39.3656 45.45 33H35.325C34.5 38.3344 32.925 43.1063 30.6375 46.275ZM2.55937 33C5.24062 39.3656 10.6688 44.2875 17.3719 46.275C15.0844 43.1063 13.5094 38.3344 12.6844 33H2.55937Z" fill="#D9D9D9"/>
</svg>
