<svg width="120" height="120" viewBox="0 0 120 120" fill="none" xmlns="http://www.w3.org/2000/svg">
<path d="M105 93.75H15C14.0054 93.75 13.0516 93.3549 12.3483 92.6517C11.6451 91.9484 11.25 90.9946 11.25 90C11.25 89.0054 11.6451 88.0516 12.3483 87.3483C13.0516 86.6451 14.0054 86.25 15 86.25H105C105.995 86.25 106.948 86.6451 107.652 87.3483C108.355 88.0516 108.75 89.0054 108.75 90C108.75 90.9946 108.355 91.9484 107.652 92.6517C106.948 93.3549 105.995 93.75 105 93.75ZM97.5 105H22.5C21.5054 105 20.5516 104.605 19.8484 103.902C19.1451 103.198 18.75 102.245 18.75 101.25C18.75 100.255 19.1451 99.3016 19.8484 98.5983C20.5516 97.8951 21.5054 97.5 22.5 97.5H97.5C98.4946 97.5 99.4484 97.8951 100.152 98.5983C100.855 99.3016 101.25 100.255 101.25 101.25C101.25 102.245 100.855 103.198 100.152 103.902C99.4484 104.605 98.4946 105 97.5 105ZM7.5 63.75H3.75V75C3.75 76.9891 4.54018 78.8968 5.9467 80.3033C7.35322 81.7098 9.26088 82.5 11.25 82.5H22.5V78.75C22.4957 74.7731 20.9139 70.9603 18.1018 68.1482C15.2897 65.3361 11.4769 63.7543 7.5 63.75Z" fill="#1E1E1E"/>
<path d="M112.5 56.25H116.25V41.25H112.5C106.535 41.2432 100.816 38.8705 96.5976 34.6524C92.3795 30.4343 90.0068 24.7153 90 18.75V15H30V18.75C29.9932 24.7153 27.6205 30.4343 23.4024 34.6524C19.1843 38.8705 13.4653 41.2432 7.5 41.25H3.75V56.25H7.5C13.4653 56.2568 19.1843 58.6295 23.4024 62.8476C27.6205 67.0657 29.9932 72.7847 30 78.75V82.5H90V78.75C90.0068 72.7847 92.3795 67.0657 96.5976 62.8476C100.816 58.6295 106.535 56.2568 112.5 56.25ZM60 71.25C55.5499 71.25 51.1998 69.9304 47.4997 67.4581C43.7996 64.9857 40.9157 61.4717 39.2127 57.3604C37.5097 53.249 37.0642 48.725 37.9323 44.3605C38.8005 39.9959 40.9434 35.9868 44.0901 32.8401C47.2368 29.6934 51.2459 27.5505 55.6105 26.6823C59.975 25.8142 64.499 26.2597 68.6104 27.9627C72.7217 29.6657 76.2357 32.5496 78.7081 36.2497C81.1804 39.9498 82.5 44.2999 82.5 48.75C82.4932 54.7153 80.1205 60.4343 75.9024 64.6524C71.6843 68.8705 65.9653 71.2432 60 71.25Z" fill="#1E1E1E"/>
<path d="M60 63.75C68.2843 63.75 75 57.0343 75 48.75C75 40.4657 68.2843 33.75 60 33.75C51.7157 33.75 45 40.4657 45 48.75C45 57.0343 51.7157 63.75 60 63.75Z" fill="#1E1E1E"/>
<path d="M97.5 78.75V82.5H108.75C110.739 82.5 112.647 81.7098 114.053 80.3033C115.46 78.8968 116.25 76.9891 116.25 75V63.75H112.5C108.523 63.7543 104.71 65.3361 101.898 68.1482C99.0861 70.9603 97.5043 74.7731 97.5 78.75ZM112.5 33.75H116.25V22.5C116.25 20.5109 115.46 18.6032 114.053 17.1967C112.647 15.7902 110.739 15 108.75 15H97.5V18.75C97.5043 22.7269 99.0861 26.5397 101.898 29.3518C104.71 32.1639 108.523 33.7457 112.5 33.75ZM22.5 18.75V15H11.25C9.26088 15 7.35322 15.7902 5.9467 17.1967C4.54018 18.6032 3.75 20.5109 3.75 22.5V33.75H7.5C11.4769 33.7457 15.2897 32.1639 18.1018 29.3518C20.9139 26.5397 22.4957 22.7269 22.5 18.75Z" fill="#1E1E1E"/>
</svg>
