<svg width="120" height="120" viewBox="0 0 120 120" fill="none" xmlns="http://www.w3.org/2000/svg">
<path d="M61.3031 23.7375C60.9542 23.4037 60.4899 23.2174 60.007 23.2174C59.5241 23.2174 59.0599 23.4037 58.7109 23.7375L15.5625 64.957C15.3793 65.1323 15.2335 65.343 15.134 65.5762C15.0345 65.8095 14.9833 66.0605 14.9836 66.3141L14.9766 105C14.9766 106.989 15.7667 108.897 17.1733 110.303C18.5798 111.71 20.4874 112.5 22.4766 112.5H45C45.9946 112.5 46.9484 112.105 47.6516 111.402C48.3549 110.698 48.75 109.745 48.75 108.75V76.875C48.75 76.3777 48.9475 75.9008 49.2992 75.5492C49.6508 75.1975 50.1277 75 50.625 75H69.375C69.8723 75 70.3492 75.1975 70.7008 75.5492C71.0525 75.9008 71.25 76.3777 71.25 76.875V108.75C71.25 109.745 71.6451 110.698 72.3483 111.402C73.0516 112.105 74.0054 112.5 75 112.5H97.5141C99.5032 112.5 101.411 111.71 102.817 110.303C104.224 108.897 105.014 106.989 105.014 105V66.3141C105.014 66.0605 104.963 65.8095 104.864 65.5762C104.764 65.343 104.618 65.1323 104.435 64.957L61.3031 23.7375Z" fill="white"/>
<path d="M115.057 57.2227L97.5258 40.4508V15C97.5258 14.0054 97.1307 13.0516 96.4274 12.3483C95.7242 11.6451 94.7703 11.25 93.7758 11.25H82.5258C81.5312 11.25 80.5774 11.6451 79.8741 12.3483C79.1709 13.0516 78.7758 14.0054 78.7758 15V22.5L65.2008 9.52031C63.9305 8.23594 62.0414 7.5 60 7.5C57.9656 7.5 56.0812 8.23594 54.8109 9.52266L4.95937 57.218C3.50156 58.6242 3.31875 60.9375 4.64531 62.4609C4.97843 62.8455 5.38631 63.1582 5.84413 63.3801C6.30196 63.602 6.80014 63.7284 7.30837 63.7517C7.8166 63.7749 8.32425 63.6945 8.80041 63.5153C9.27657 63.3361 9.7113 63.0619 10.0781 62.7094L58.7109 16.2375C59.0599 15.9037 59.5241 15.7174 60.007 15.7174C60.4899 15.7174 60.9542 15.9037 61.3031 16.2375L109.941 62.7094C110.657 63.3964 111.617 63.7714 112.609 63.7521C113.602 63.7327 114.546 63.3207 115.235 62.6062C116.674 61.1156 116.555 58.6547 115.057 57.2227Z" fill="white"/>
</svg>
